<?xml version="1.0" encoding="utf-8"?>
<!-- Generator: Adobe Illustrator 24.1.2, SVG Export Plug-In . SVG Version: 6.00 Build 0)  -->
<svg version="1.1" id="Calque_1" xmlns="http://www.w3.org/2000/svg" xmlns:xlink="http://www.w3.org/1999/xlink" x="0px" y="0px"
	 viewBox="0 0 512 512" style="enable-background:new 0 0 512 512;" xml:space="preserve">
<style type="text/css">
	.st0{fill:none;stroke:#00FF6D;stroke-width:9.4973;stroke-linejoin:round;stroke-miterlimit:10;}
</style>
<rect width="512" height="512"/>
<g>
	<polygon class="st0" points="129.312,438.744 66,402.184 129.312,365.63 192.624,402.187 	"/>
	<polygon class="st0" points="255.94,219.412 66,109.743 129.252,73.225 255.968,146.318 	"/>
	<line class="st0" x1="66" y1="402.184" x2="66" y2="109.743"/>
	<line class="st0" x1="192.624" y1="402.187" x2="192.624" y2="255.967"/>
	<polygon class="st0" points="382.627,438.775 445.885,402.187 382.456,365.632 319.255,402.121 	"/>
	<polyline class="st0" points="318.911,256.066 255.94,292.505 129.252,219.379 129.312,365.63 	"/>
	<polyline class="st0" points="445.885,402.187 446,109.813 382.627,73.225 255.968,146.318 255.94,219.412 319.255,182.857 
		319.255,402.121 	"/>
	<line class="st0" x1="382.627" y1="73.225" x2="382.456" y2="365.632"/>
</g>
</svg>
