<?xml version="1.0" encoding="utf-8"?>
<!-- Generator: Adobe Illustrator 24.1.2, SVG Export Plug-In . SVG Version: 6.00 Build 0)  -->
<svg version="1.1" id="Calque_1" xmlns="http://www.w3.org/2000/svg" xmlns:xlink="http://www.w3.org/1999/xlink" x="0px" y="0px"
	 viewBox="0 0 300 300" style="enable-background:new 0 0 300 300;" xml:space="preserve">
<style type="text/css">
	.st0{fill:#FFFFFF;}
	.st1{fill:none;stroke:#000000;stroke-width:3;stroke-linejoin:round;stroke-miterlimit:10;}
</style>
<rect class="st0" width="300" height="300"/>
<g>
	<g>
		<g>
			<path d="M146.855,201.388c0-5.228-4.305-9.359-9.579-9.359h-11.38c-0.483,0-0.834,0.396-0.834,0.835v29.087
				c0,0.439,0.351,0.835,0.834,0.835h1.714c0.439,0,0.836-0.396,0.836-0.835v-11.204h8.392l5.842,11.643
				c0.088,0.177,0.309,0.396,0.704,0.396h2.241c0.748,0,1.054-0.702,0.748-1.274l-6.019-11.161
				C144.175,208.814,146.855,205.431,146.855,201.388z M137.056,207.847h-8.522v-12.61h8.522c3.383,0,6.328,2.856,6.328,6.195
				C143.384,205.035,140.439,207.847,137.056,207.847z M76.562,192.205c-0.088-0.352-0.439-0.615-0.792-0.615h-0.701
				c-0.309,0-0.659,0.219-0.748,0.483l-8.568,24.21h-0.218l-8.701-24.21c-0.088-0.264-0.439-0.483-0.748-0.483h-0.701
				c-0.353,0-0.704,0.264-0.792,0.615l-5.668,29.526c-0.132,0.615,0.132,1.054,0.792,1.054h1.758c0.351,0,0.745-0.308,0.789-0.615
				l3.822-22.627h0.177l8.174,23.199c0.086,0.264,0.483,0.483,0.745,0.483h0.792c0.262,0,0.659-0.219,0.748-0.483l8.083-23.199
				h0.177l3.91,22.627c0.088,0.308,0.439,0.615,0.792,0.615h1.755c0.659,0,0.924-0.439,0.792-1.054L76.562,192.205z M102.525,191.59
				c-8.787,0-15.774,7.074-15.774,15.862c0,8.787,6.987,15.773,15.774,15.773c8.789,0,15.818-6.986,15.818-15.773
				C118.343,198.664,111.314,191.59,102.525,191.59z M102.525,220.149c-6.985,0-12.697-5.711-12.697-12.697
				c0-6.987,5.712-12.786,12.697-12.786c6.987,0,12.744,5.799,12.744,12.786C115.268,214.438,109.512,220.149,102.525,220.149z
				 M249.262,216.59c-0.265-0.175-0.615-0.219-1.054,0.132c-2.329,1.757-4.57,3.295-8.392,3.295c-6.943,0-12.261-5.844-12.261-12.61
				c0-6.811,5.318-12.654,12.261-12.654c2.986,0,6.107,1.318,8.392,3.295c0.439,0.439,0.789,0.483,1.142,0.044l1.187-1.187
				c0.351-0.352,0.306-0.879-0.044-1.231c-2.989-2.548-6.195-4.086-10.633-4.086c-8.789,0-15.862,7.074-15.862,15.862
				c0,8.787,7.073,15.773,15.862,15.773c3.91,0,7.688-1.362,10.677-4.261c0.306-0.308,0.395-0.923,0.044-1.187L249.262,216.59z
				 M216.442,192.029h-1.758c-0.439,0-0.834,0.396-0.834,0.835v29.087c0,0.439,0.395,0.835,0.834,0.835h1.758
				c0.439,0,0.836-0.396,0.836-0.835v-29.087C217.278,192.425,216.881,192.029,216.442,192.029z M164.647,192.029h-9.711
				c-0.483,0-0.834,0.396-0.834,0.835v29.087c0,0.439,0.351,0.835,0.834,0.835h1.67c0.441,0,0.836-0.396,0.836-0.835v-10.325h7.25
				c5.359,0,9.799-4.439,9.799-9.886C174.49,196.423,170.05,192.029,164.647,192.029z M164.426,208.374h-6.985v-13.006h6.985
				c3.604,0,6.681,2.725,6.681,6.284C171.107,205.431,168.03,208.374,164.426,208.374z M204.057,192.029h-1.714
				c-0.485,0-0.836,0.396-0.836,0.835v12.831h-17.838v-12.831c0-0.439-0.353-0.835-0.836-0.835h-1.714
				c-0.439,0-0.834,0.396-0.834,0.835v29.087c0,0.439,0.395,0.835,0.834,0.835h1.714c0.483,0,0.836-0.396,0.836-0.835v-13.314
				h17.838v13.314c0,0.439,0.351,0.835,0.836,0.835h1.714c0.439,0,0.834-0.396,0.834-0.835v-29.087
				C204.89,192.425,204.495,192.029,204.057,192.029z M268.106,197.888c-1.432-0.597-2.301-1.262-2.301-2.404
				c0-0.716,0.545-1.875,2.353-1.875c1.039,0,2.113,0.716,2.232,0.784c0.273,0.153,0.443,0.085,0.596-0.153
				c0.068-0.103,0.137-0.222,0.204-0.324c0.205-0.324,0-0.529-0.102-0.58c0,0-1.244-0.869-2.915-0.869
				c-2.71,0-3.63,1.875-3.63,3.033c0,1.943,1.125,2.71,3,3.529c1.96,0.818,2.982,1.517,2.982,2.693c0,1.006-0.903,1.875-2.283,1.875
				c-1.517,0-2.761-1.193-2.88-1.295c-0.239-0.204-0.426-0.068-0.596,0.153c-0.086,0.103-0.171,0.222-0.256,0.324
				c-0.204,0.325-0.034,0.46,0.103,0.58c0.221,0.204,1.584,1.381,3.596,1.381c1.994,0,3.681-1.296,3.681-3.068
				C271.89,199.694,270.407,198.825,268.106,197.888z M263.081,192.638h-7.226c-0.188,0-0.324,0.154-0.324,0.324v0.495
				c0,0.17,0.136,0.324,0.324,0.324h2.966v10.465c0,0.17,0.153,0.323,0.324,0.323h0.648c0.17,0,0.324-0.153,0.324-0.323V193.78
				h2.966c0.188,0,0.324-0.153,0.324-0.324v-0.495C263.405,192.792,263.269,192.638,263.081,192.638z"/>
		</g>
	</g>
	<g>
		<polygon class="st1" points="109.982,164.657 89.983,153.108 109.982,141.561 129.981,153.109 		"/>
		<polygon class="st1" points="149.981,95.374 89.983,60.732 109.963,49.196 149.99,72.285 		"/>
		<line class="st1" x1="89.983" y1="153.108" x2="89.983" y2="60.732"/>
		<line class="st1" x1="129.981" y1="153.109" x2="129.981" y2="106.921"/>
		<polygon class="st1" points="189.999,164.666 209.981,153.109 189.945,141.562 169.981,153.088 		"/>
		<polyline class="st1" points="169.872,106.952 149.981,118.463 109.963,95.363 109.982,141.561 		"/>
		<polyline class="st1" points="209.981,153.109 210.017,60.754 189.999,49.196 149.99,72.285 149.981,95.374 169.981,83.827 
			169.981,153.088 		"/>
		<line class="st1" x1="189.999" y1="49.196" x2="189.945" y2="141.562"/>
	</g>
</g>
</svg>
