<?xml version="1.0" encoding="utf-8"?>
<!-- Generator: Adobe Illustrator 24.1.2, SVG Export Plug-In . SVG Version: 6.00 Build 0)  -->
<svg version="1.1" id="Calque_1" xmlns="http://www.w3.org/2000/svg" xmlns:xlink="http://www.w3.org/1999/xlink" x="0px" y="0px"
	 viewBox="0 0 300 300" style="enable-background:new 0 0 300 300;" xml:space="preserve">
<style type="text/css">
	.st0{fill:#FFFFFF;}
	.st1{fill:none;stroke:#00FF6D;stroke-width:3;stroke-linejoin:round;stroke-miterlimit:10;}
</style>
<rect width="300" height="300"/>
<g>
	<g>
		<g>
			<path class="st0" d="M146.855,215.177c0-5.228-4.305-9.359-9.579-9.359h-11.38c-0.483,0-0.834,0.396-0.834,0.835v29.087
				c0,0.439,0.351,0.835,0.834,0.835h1.714c0.439,0,0.836-0.396,0.836-0.835v-11.204h8.392l5.842,11.643
				c0.088,0.177,0.309,0.396,0.704,0.396h2.241c0.748,0,1.054-0.702,0.748-1.274l-6.019-11.161
				C144.175,222.603,146.855,219.22,146.855,215.177z M137.056,221.636h-8.522v-12.61h8.522c3.383,0,6.328,2.856,6.328,6.195
				C143.384,218.824,140.439,221.636,137.056,221.636z M76.562,205.995c-0.088-0.352-0.439-0.615-0.792-0.615h-0.701
				c-0.309,0-0.659,0.219-0.748,0.483l-8.568,24.21h-0.218l-8.701-24.21c-0.088-0.264-0.439-0.483-0.748-0.483h-0.701
				c-0.353,0-0.704,0.264-0.792,0.615l-5.668,29.526c-0.132,0.615,0.132,1.054,0.792,1.054h1.758c0.351,0,0.745-0.308,0.789-0.615
				l3.822-22.627h0.177l8.174,23.199c0.086,0.264,0.483,0.483,0.745,0.483h0.792c0.262,0,0.659-0.219,0.748-0.483l8.083-23.199
				h0.177l3.91,22.627c0.088,0.308,0.439,0.615,0.792,0.615h1.755c0.659,0,0.924-0.439,0.792-1.054L76.562,205.995z
				 M102.525,205.379c-8.787,0-15.774,7.074-15.774,15.862c0,8.787,6.987,15.773,15.774,15.773c8.789,0,15.818-6.986,15.818-15.773
				C118.343,212.454,111.314,205.379,102.525,205.379z M102.525,233.939c-6.985,0-12.697-5.711-12.697-12.697
				c0-6.987,5.712-12.786,12.697-12.786c6.987,0,12.744,5.799,12.744,12.786C115.268,228.227,109.512,233.939,102.525,233.939z
				 M164.647,205.818h-9.711c-0.483,0-0.834,0.396-0.834,0.835v29.087c0,0.439,0.351,0.835,0.834,0.835h1.67
				c0.441,0,0.836-0.396,0.836-0.835v-10.325h7.25c5.359,0,9.799-4.439,9.799-9.886C174.49,210.213,170.05,205.818,164.647,205.818z
				 M164.426,222.163h-6.985v-13.006h6.985c3.604,0,6.681,2.725,6.681,6.284C171.107,219.22,168.03,222.163,164.426,222.163z
				 M249.262,230.38c-0.265-0.175-0.615-0.219-1.054,0.132c-2.329,1.757-4.57,3.295-8.392,3.295c-6.943,0-12.261-5.844-12.261-12.61
				c0-6.811,5.318-12.654,12.261-12.654c2.986,0,6.107,1.318,8.392,3.295c0.439,0.439,0.789,0.483,1.142,0.044l1.187-1.187
				c0.351-0.352,0.306-0.879-0.044-1.231c-2.989-2.548-6.195-4.086-10.633-4.086c-8.789,0-15.862,7.074-15.862,15.862
				c0,8.787,7.073,15.773,15.862,15.773c3.91,0,7.688-1.362,10.677-4.261c0.306-0.308,0.395-0.923,0.044-1.187L249.262,230.38z
				 M204.057,205.818h-1.714c-0.485,0-0.836,0.396-0.836,0.835v12.831h-17.838v-12.831c0-0.439-0.353-0.835-0.836-0.835h-1.714
				c-0.439,0-0.834,0.396-0.834,0.835v29.087c0,0.439,0.395,0.835,0.834,0.835h1.714c0.483,0,0.836-0.396,0.836-0.835v-13.314
				h17.838v13.314c0,0.439,0.351,0.835,0.836,0.835h1.714c0.439,0,0.834-0.396,0.834-0.835v-29.087
				C204.89,206.214,204.495,205.818,204.057,205.818z M216.442,205.818h-1.758c-0.439,0-0.834,0.396-0.834,0.835v29.087
				c0,0.439,0.395,0.835,0.834,0.835h1.758c0.439,0,0.836-0.396,0.836-0.835v-29.087
				C217.278,206.214,216.881,205.818,216.442,205.818z M268.106,211.678c-1.432-0.597-2.301-1.262-2.301-2.404
				c0-0.716,0.545-1.875,2.353-1.875c1.039,0,2.113,0.716,2.232,0.784c0.273,0.153,0.443,0.085,0.596-0.153
				c0.068-0.103,0.137-0.222,0.204-0.324c0.205-0.324,0-0.529-0.102-0.58c0,0-1.244-0.869-2.915-0.869
				c-2.71,0-3.63,1.875-3.63,3.033c0,1.943,1.125,2.71,3,3.529c1.96,0.818,2.982,1.517,2.982,2.693c0,1.006-0.903,1.875-2.283,1.875
				c-1.517,0-2.761-1.193-2.88-1.295c-0.239-0.204-0.426-0.068-0.596,0.153c-0.086,0.103-0.171,0.222-0.256,0.324
				c-0.204,0.325-0.034,0.46,0.103,0.58c0.221,0.204,1.584,1.381,3.596,1.381c1.994,0,3.681-1.296,3.681-3.068
				C271.89,213.484,270.407,212.615,268.106,211.678z M263.081,206.428h-7.226c-0.188,0-0.324,0.153-0.324,0.324v0.495
				c0,0.17,0.136,0.324,0.324,0.324h2.966v10.465c0,0.17,0.153,0.324,0.324,0.324h0.648c0.17,0,0.324-0.153,0.324-0.324v-10.465
				h2.966c0.188,0,0.324-0.153,0.324-0.324v-0.495C263.405,206.581,263.269,206.428,263.081,206.428z"/>
		</g>
	</g>
	<g>
		<polygon class="st1" points="109.982,178.446 89.983,166.897 109.982,155.351 129.981,166.898 		"/>
		<polygon class="st1" points="149.981,109.163 89.983,74.521 109.963,62.986 149.99,86.075 		"/>
		<line class="st1" x1="89.983" y1="166.897" x2="89.983" y2="74.521"/>
		<line class="st1" x1="129.981" y1="166.898" x2="129.981" y2="120.71"/>
		<polygon class="st1" points="189.999,178.456 209.981,166.898 189.945,155.352 169.981,166.878 		"/>
		<polyline class="st1" points="169.872,120.742 149.981,132.252 109.963,109.153 109.982,155.351 		"/>
		<polyline class="st1" points="209.981,166.898 210.017,74.543 189.999,62.986 149.99,86.075 149.981,109.163 169.981,97.616 
			169.981,166.878 		"/>
		<line class="st1" x1="189.999" y1="62.986" x2="189.945" y2="155.352"/>
	</g>
</g>
</svg>
