<?xml version="1.0" encoding="utf-8"?>
<!-- Generator: Adobe Illustrator 24.1.2, SVG Export Plug-In . SVG Version: 6.00 Build 0)  -->
<svg version="1.1" id="Calque_1" xmlns="http://www.w3.org/2000/svg" xmlns:xlink="http://www.w3.org/1999/xlink" x="0px" y="0px"
	 viewBox="0 0 300 300" style="enable-background:new 0 0 300 300;" xml:space="preserve">
<style type="text/css">
	.st0{fill:#FFFFFF;}
	.st1{fill:none;stroke:#00FF6D;stroke-width:3;stroke-linejoin:round;stroke-miterlimit:10;}
</style>
<rect width="300" height="300"/>
<g>
	<path class="st0" d="M48.891,247.523v-11.899h7.19v1.207h-5.864v3.74h3.4v1.207h-3.4v4.539h6.12v1.207H48.891z"/>
	<path class="st0" d="M65.041,247.523v-1.088c-0.629,0.68-1.513,1.275-2.788,1.275c-1.394,0-2.856-0.697-2.856-2.856
		c0-2.005,1.649-2.855,3.417-2.855c0.901,0,1.7,0.221,2.227,0.51v-1.054c0-1.326-0.629-1.972-1.938-1.972
		c-0.935,0-1.7,0.255-2.431,0.68l-0.476-1.037c0.782-0.425,1.836-0.714,2.992-0.714c1.921,0,3.128,0.816,3.128,2.89v6.221H65.041z
		 M65.041,243.528c-0.578-0.323-1.207-0.51-2.295-0.51c-1.309,0-2.091,0.629-2.091,1.751c0,1.326,0.731,1.904,1.819,1.904
		c1.156,0,2.023-0.595,2.567-1.343V243.528z"/>
	<path class="st0" d="M72.963,247.71c-1.224,0-2.294-0.459-3.145-1.139l0.748-0.935c0.714,0.629,1.547,0.986,2.431,0.986
		c1.224,0,1.802-0.51,1.802-1.377c0-0.731-0.527-1.139-2.108-1.819c-1.785-0.765-2.533-1.309-2.533-2.737
		c0-1.36,1.173-2.278,2.788-2.278c1.224,0,2.176,0.391,2.856,0.952l-0.714,0.935c-0.697-0.544-1.275-0.799-2.227-0.799
		c-0.935,0-1.479,0.459-1.479,1.105c0,0.748,0.459,1.054,1.972,1.734c1.683,0.765,2.669,1.258,2.669,2.856
		C76.023,246.945,74.51,247.71,72.963,247.71z"/>
	<path class="st0" d="M81.924,250.667h-1.275l1.224-3.247l-3.179-8.822h1.343l2.176,6.477l0.306,0.918l0.306-0.901l2.193-6.494
		h1.343L81.924,250.667z"/>
	<path class="st0" d="M89.082,249.529h-0.884l0.255-3.96h1.734L89.082,249.529z"/>
	<path class="st0" d="M104.466,239.925c-0.357-0.204-0.748-0.34-1.343-0.34c-1.241,0-1.938,1.002-1.938,2.703v5.235h-1.275v-8.924
		h1.275v1.105c0.408-0.714,1.258-1.292,2.21-1.292c0.663,0,1.088,0.085,1.394,0.221L104.466,239.925z"/>
	<path class="st0" d="M111.183,247.71c-2.176,0-3.841-1.615-3.841-4.641c0-3.026,1.734-4.658,3.91-4.658s3.841,1.564,3.841,4.59
		C115.093,246.027,113.359,247.71,111.183,247.71z M111.217,239.516c-1.547,0-2.584,1.173-2.584,3.519
		c0,2.346,1.037,3.569,2.584,3.569c1.547,0,2.601-1.224,2.601-3.569C113.818,240.689,112.764,239.516,111.217,239.516z"/>
	<path class="st0" d="M122.641,247.71c-1.122,0-1.887-0.476-2.516-1.19v1.003h-1.275v-11.678l1.275-0.714v4.555
		c0.629-0.68,1.479-1.275,2.686-1.275c1.785,0,3.196,1.36,3.196,4.505C126.007,246.078,124.511,247.71,122.641,247.71z
		 M122.488,239.516c-0.952,0-1.734,0.51-2.363,1.292v4.454c0.493,0.748,1.36,1.343,2.414,1.343c1.479,0,2.209-1.275,2.209-3.671
		C124.749,240.689,123.899,239.516,122.488,239.516z"/>
	<path class="st0" d="M135.306,247.523v-1.088c-0.51,0.748-1.343,1.275-2.464,1.275c-1.887,0-3.128-1.105-3.128-3.672v-5.439h1.275
		v5.219c0,1.921,0.68,2.788,2.108,2.788c1.241,0,2.209-0.833,2.209-2.788v-5.219h1.275v8.924H135.306z"/>
	<path class="st0" d="M143.279,247.71c-1.224,0-2.294-0.459-3.145-1.139l0.748-0.935c0.714,0.629,1.547,0.986,2.431,0.986
		c1.224,0,1.802-0.51,1.802-1.377c0-0.731-0.527-1.139-2.108-1.819c-1.785-0.765-2.533-1.309-2.533-2.737
		c0-1.36,1.173-2.278,2.788-2.278c1.224,0,2.176,0.391,2.856,0.952l-0.714,0.935c-0.697-0.544-1.275-0.799-2.227-0.799
		c-0.935,0-1.479,0.459-1.479,1.105c0,0.748,0.459,1.054,1.972,1.734c1.683,0.765,2.668,1.258,2.668,2.856
		C146.338,246.945,144.826,247.71,143.279,247.71z"/>
	<path class="st0" d="M151.626,239.67v5.813c0,0.799,0.221,1.071,0.901,1.071c0.51,0,0.85-0.085,1.258-0.255l-0.085,1.104
		c-0.493,0.204-0.969,0.306-1.649,0.306c-1.105,0-1.7-0.544-1.7-2.023v-6.017h-1.105v-1.071h1.105v-2.753l1.274-0.714v3.467h2.21
		v1.071H151.626z"/>
	<path class="st0" d="M168.676,247.523v-1.088c-0.629,0.68-1.513,1.275-2.788,1.275c-1.394,0-2.856-0.697-2.856-2.856
		c0-2.005,1.649-2.855,3.417-2.855c0.901,0,1.7,0.221,2.227,0.51v-1.054c0-1.326-0.629-1.972-1.938-1.972
		c-0.935,0-1.7,0.255-2.431,0.68l-0.476-1.037c0.782-0.425,1.836-0.714,2.992-0.714c1.921,0,3.128,0.816,3.128,2.89v6.221H168.676z
		 M168.676,243.528c-0.578-0.323-1.207-0.51-2.295-0.51c-1.309,0-2.091,0.629-2.091,1.751c0,1.326,0.731,1.904,1.819,1.904
		c1.156,0,2.023-0.595,2.567-1.343V243.528z"/>
	<path class="st0" d="M179.726,247.523v-5.218c0-1.921-0.68-2.788-2.108-2.788c-1.241,0-2.21,0.833-2.21,2.788v5.218h-1.275v-8.924
		h1.275v1.088c0.51-0.748,1.343-1.275,2.465-1.275c1.887,0,3.128,1.105,3.128,3.672v5.439H179.726z"/>
	<path class="st0" d="M190.589,247.523v-1.088c-0.629,0.68-1.479,1.275-2.686,1.275c-1.785,0-3.195-1.36-3.195-4.504
		c0-3.162,1.496-4.794,3.366-4.794c1.122,0,1.887,0.476,2.516,1.19v-3.756l1.275-0.714v12.392H190.589z M190.589,240.86
		c-0.493-0.748-1.36-1.343-2.414-1.343c-1.479,0-2.209,1.275-2.209,3.672c0,2.244,0.85,3.417,2.261,3.417
		c0.952,0,1.734-0.51,2.363-1.292V240.86z"/>
	<path class="st0" d="M212.297,247.523v-5.218c0-2.04-0.629-2.788-1.921-2.788c-1.207,0-1.989,0.816-1.989,2.788v5.218h-1.275
		v-5.218c0-2.04-0.68-2.788-1.921-2.788c-1.224,0-1.989,0.816-1.989,2.788v5.218h-1.275v-8.924h1.275v1.088
		c0.459-0.765,1.207-1.275,2.261-1.275c1.258,0,2.023,0.68,2.448,1.53c0.527-0.85,1.258-1.53,2.703-1.53
		c1.819,0,2.958,1.071,2.958,3.672v5.439H212.297z"/>
	<path class="st0" d="M222.872,247.523v-1.088c-0.629,0.68-1.513,1.275-2.788,1.275c-1.394,0-2.856-0.697-2.856-2.856
		c0-2.005,1.649-2.855,3.417-2.855c0.901,0,1.7,0.221,2.227,0.51v-1.054c0-1.326-0.629-1.972-1.938-1.972
		c-0.935,0-1.7,0.255-2.431,0.68l-0.476-1.037c0.782-0.425,1.836-0.714,2.992-0.714c1.921,0,3.128,0.816,3.128,2.89v6.221H222.872z
		 M222.872,243.528c-0.578-0.323-1.207-0.51-2.295-0.51c-1.309,0-2.091,0.629-2.091,1.751c0,1.326,0.731,1.904,1.819,1.904
		c1.156,0,2.023-0.595,2.567-1.343V243.528z"/>
	<path class="st0" d="M230.488,250.804l-0.408-0.969c2.975-0.085,3.655-0.867,3.655-2.94v-0.459
		c-0.629,0.68-1.479,1.275-2.686,1.275c-1.785,0-3.195-1.36-3.195-4.504c0-3.162,1.496-4.794,3.366-4.794
		c1.122,0,1.887,0.476,2.516,1.19v-1.003h1.275v8.126C235.01,249.41,233.803,250.702,230.488,250.804z M233.735,240.86
		c-0.493-0.748-1.36-1.343-2.414-1.343c-1.479,0-2.209,1.275-2.209,3.672c0,2.244,0.85,3.417,2.261,3.417
		c0.952,0,1.734-0.51,2.363-1.292V240.86z"/>
	<path class="st0" d="M239.991,237.001c-0.527,0-0.935-0.408-0.935-0.901c0-0.51,0.408-0.918,0.935-0.918
		c0.476,0,0.884,0.408,0.884,0.918C240.875,236.593,240.467,237.001,239.991,237.001z M239.328,247.523v-8.924h1.274v8.924H239.328z
		"/>
	<path class="st0" d="M250.344,240.417c-0.646-0.578-1.241-0.901-2.142-0.901c-1.394,0-2.465,1.258-2.465,3.485
		c0,2.193,0.935,3.604,2.516,3.604c0.867,0,1.445-0.357,2.057-0.952l0.765,0.816c-0.748,0.765-1.615,1.241-2.873,1.241
		c-1.955,0-3.756-1.496-3.756-4.606c0-3.298,1.972-4.692,3.841-4.692c1.207,0,2.125,0.442,2.822,1.054L250.344,240.417z"/>
</g>
<g>
	<g>
		<path class="st0" d="M146.855,201.388c0-5.228-4.305-9.359-9.579-9.359h-11.38c-0.483,0-0.834,0.396-0.834,0.835v29.087
			c0,0.439,0.351,0.835,0.834,0.835h1.714c0.439,0,0.836-0.396,0.836-0.835v-11.204h8.392l5.842,11.643
			c0.088,0.177,0.309,0.396,0.704,0.396h2.241c0.748,0,1.054-0.702,0.748-1.274l-6.019-11.161
			C144.175,208.814,146.855,205.431,146.855,201.388z M137.056,207.847h-8.522v-12.61h8.522c3.383,0,6.328,2.856,6.328,6.195
			C143.384,205.035,140.439,207.847,137.056,207.847z M102.525,191.59c-8.787,0-15.774,7.074-15.774,15.862
			c0,8.787,6.987,15.773,15.774,15.773c8.789,0,15.818-6.986,15.818-15.773C118.343,198.664,111.314,191.59,102.525,191.59z
			 M102.525,220.149c-6.985,0-12.697-5.711-12.697-12.697c0-6.987,5.712-12.786,12.697-12.786c6.987,0,12.744,5.799,12.744,12.786
			C115.268,214.438,109.512,220.149,102.525,220.149z M76.562,192.205c-0.088-0.352-0.439-0.615-0.792-0.615h-0.701
			c-0.309,0-0.659,0.219-0.748,0.483l-8.568,24.21h-0.218l-8.701-24.21c-0.088-0.264-0.439-0.483-0.748-0.483h-0.701
			c-0.353,0-0.704,0.264-0.792,0.615l-5.668,29.526c-0.132,0.615,0.132,1.054,0.792,1.054h1.758c0.351,0,0.745-0.308,0.789-0.615
			l3.822-22.627h0.177l8.174,23.199c0.086,0.264,0.483,0.483,0.745,0.483h0.792c0.262,0,0.659-0.219,0.748-0.483l8.083-23.199h0.177
			l3.91,22.627c0.088,0.308,0.439,0.615,0.792,0.615h1.755c0.659,0,0.924-0.439,0.792-1.054L76.562,192.205z M249.262,216.59
			c-0.265-0.175-0.615-0.219-1.054,0.132c-2.329,1.757-4.57,3.295-8.392,3.295c-6.943,0-12.261-5.844-12.261-12.61
			c0-6.811,5.318-12.654,12.261-12.654c2.986,0,6.107,1.318,8.392,3.295c0.439,0.439,0.789,0.483,1.142,0.044l1.187-1.187
			c0.351-0.352,0.306-0.879-0.044-1.231c-2.989-2.548-6.195-4.086-10.633-4.086c-8.789,0-15.862,7.074-15.862,15.862
			c0,8.787,7.073,15.773,15.862,15.773c3.91,0,7.688-1.362,10.677-4.261c0.306-0.308,0.395-0.923,0.044-1.187L249.262,216.59z
			 M164.647,192.029h-9.711c-0.483,0-0.834,0.396-0.834,0.835v29.087c0,0.439,0.351,0.835,0.834,0.835h1.67
			c0.441,0,0.836-0.396,0.836-0.835v-10.325h7.25c5.359,0,9.799-4.439,9.799-9.886C174.49,196.423,170.05,192.029,164.647,192.029z
			 M164.426,208.374h-6.985v-13.006h6.985c3.604,0,6.681,2.725,6.681,6.284C171.107,205.431,168.03,208.374,164.426,208.374z
			 M204.057,192.029h-1.714c-0.485,0-0.836,0.396-0.836,0.835v12.831h-17.838v-12.831c0-0.439-0.353-0.835-0.836-0.835h-1.714
			c-0.439,0-0.834,0.396-0.834,0.835v29.087c0,0.439,0.395,0.835,0.834,0.835h1.714c0.483,0,0.836-0.396,0.836-0.835v-13.314h17.838
			v13.314c0,0.439,0.351,0.835,0.836,0.835h1.714c0.439,0,0.834-0.396,0.834-0.835v-29.087
			C204.89,192.425,204.495,192.029,204.057,192.029z M216.442,192.029h-1.758c-0.439,0-0.834,0.396-0.834,0.835v29.087
			c0,0.439,0.395,0.835,0.834,0.835h1.758c0.439,0,0.836-0.396,0.836-0.835v-29.087
			C217.278,192.425,216.881,192.029,216.442,192.029z M263.081,192.638h-7.226c-0.188,0-0.324,0.154-0.324,0.324v0.495
			c0,0.17,0.136,0.324,0.324,0.324h2.966v10.465c0,0.17,0.153,0.323,0.324,0.323h0.648c0.17,0,0.324-0.153,0.324-0.323V193.78h2.966
			c0.188,0,0.324-0.153,0.324-0.324v-0.495C263.405,192.792,263.269,192.638,263.081,192.638z M268.106,197.888
			c-1.432-0.597-2.301-1.262-2.301-2.404c0-0.716,0.545-1.875,2.353-1.875c1.039,0,2.113,0.716,2.232,0.784
			c0.273,0.153,0.443,0.085,0.596-0.153c0.068-0.103,0.137-0.222,0.204-0.324c0.205-0.324,0-0.529-0.102-0.58
			c0,0-1.244-0.869-2.915-0.869c-2.71,0-3.63,1.875-3.63,3.033c0,1.943,1.125,2.71,3,3.529c1.96,0.818,2.982,1.517,2.982,2.693
			c0,1.006-0.903,1.875-2.283,1.875c-1.517,0-2.761-1.193-2.88-1.295c-0.239-0.204-0.426-0.068-0.596,0.153
			c-0.086,0.103-0.171,0.222-0.256,0.324c-0.204,0.325-0.034,0.46,0.103,0.58c0.221,0.204,1.584,1.381,3.596,1.381
			c1.994,0,3.681-1.296,3.681-3.068C271.89,199.694,270.407,198.825,268.106,197.888z"/>
	</g>
</g>
<g>
	<polygon class="st1" points="109.982,164.657 89.983,153.108 109.982,141.561 129.981,153.109 	"/>
	<polygon class="st1" points="149.981,95.374 89.983,60.732 109.963,49.196 149.99,72.285 	"/>
	<line class="st1" x1="89.983" y1="153.108" x2="89.983" y2="60.732"/>
	<line class="st1" x1="129.981" y1="153.109" x2="129.981" y2="106.921"/>
	<polygon class="st1" points="189.999,164.666 209.981,153.109 189.945,141.562 169.981,153.088 	"/>
	<polyline class="st1" points="169.872,106.952 149.981,118.463 109.963,95.363 109.982,141.561 	"/>
	<polyline class="st1" points="209.981,153.109 210.017,60.754 189.999,49.196 149.99,72.285 149.981,95.374 169.981,83.827 
		169.981,153.088 	"/>
	<line class="st1" x1="189.999" y1="49.196" x2="189.945" y2="141.562"/>
</g>
</svg>
